<?xml version="1.0" encoding="utf-8"?>
<!-- Svg Vector Icons : http://www.onlinewebfonts.com/icon -->
<!DOCTYPE svg PUBLIC "-//W3C//DTD SVG 1.1//EN" "http://www.w3.org/Graphics/SVG/1.1/DTD/svg11.dtd">
<svg version="1.1" xmlns="http://www.w3.org/2000/svg" xmlns:xlink="http://www.w3.org/1999/xlink" x="0px" y="0px" viewBox="0 0 256 256" enable-background="new 0 0 256 256" xml:space="preserve">
<metadata> Svg Vector Icons : http://www.onlinewebfonts.com/icon </metadata>
<g><g><g><path fill="white" d="M224.1,94.8c-7.4,0-13.4,6-13.4,13.4c0,7.4,6,13.4,13.4,13.4c7.4,0,13.4-6,13.4-13.4C237.4,100.8,231.4,94.8,224.1,94.8z M32,94.8c-7.4,0-13.4,6-13.4,13.4c0,7.4,6,13.4,13.4,13.4c7.4,0,13.4-6,13.4-13.4C45.3,100.8,39.3,94.8,32,94.8z M184.3,70.5c-11,0-19.9,8.9-19.9,19.9c0,11,8.9,19.9,19.9,19.9c11,0,19.9-8.9,19.9-19.9C204.2,79.4,195.3,70.5,184.3,70.5z M246,191.4h-22.7v-41.7c0-7.2-2.1-13.8-5.5-19.6c2-0.6,4-1,6.2-1c12.1,0,21.9,9.9,21.9,22L246,191.4L246,191.4z M71.7,70.5c-11,0-19.9,8.9-19.9,19.9c0,11,8.9,19.9,19.9,19.9c10.9,0,19.9-8.9,19.9-19.9S82.7,70.5,71.7,70.5z M32,129.1c2.2,0,4.2,0.4,6.2,1c-3.4,5.8-5.5,12.5-5.5,19.6v41.7H10V151C10,138.9,19.9,129.1,32,129.1z M128,30.7c-16.2,0-29.4,13.2-29.4,29.4c0,16.2,13.2,29.4,29.4,29.4c16.2,0,29.4-13.2,29.4-29.4C157.4,43.9,144.2,30.7,128,30.7z M216.1,206.9h-34.7v-63.4c0-8.7-2.3-16.8-6-24.1c2.8-0.8,5.8-1.4,9-1.4c17.5,0,31.8,14.2,31.8,31.8L216.1,206.9L216.1,206.9z M74.6,143.5v63.4H39.9v-57.2c0-17.5,14.3-31.8,31.8-31.8c3.1,0,6.1,0.6,8.9,1.4C76.9,126.6,74.6,134.7,74.6,143.5z M81.9,225.3h92.2v-81.8c0-25.4-20.7-46.1-46.1-46.1s-46.1,20.7-46.1,46.1V225.3z"/></g><g></g><g></g><g></g><g></g><g></g><g></g><g></g><g></g><g></g><g></g><g></g><g></g><g></g><g></g><g></g></g></g>
</svg>