<?xml version="1.0" encoding="utf-8"?>
<!-- Svg Vector Icons : http://www.onlinewebfonts.com/icon -->
<!DOCTYPE svg PUBLIC "-//W3C//DTD SVG 1.1//EN" "http://www.w3.org/Graphics/SVG/1.1/DTD/svg11.dtd">
<svg version="1.1" xmlns="http://www.w3.org/2000/svg" xmlns:xlink="http://www.w3.org/1999/xlink" x="0px" y="0px" viewBox="0 0 256 256" enable-background="new 0 0 256 256" xml:space="preserve">
<metadata> Svg Vector Icons : http://www.onlinewebfonts.com/icon </metadata>
<g><g><g><path fill="white" d="M119.7,10.3C90.3,13.7,65.5,30.9,53,56.7c-9.8,20.1-11.2,42.5-4.2,63.6c7,21,21.3,37.5,41.7,47.9l5.2,2.7v17.3v17.3l1.1,1l1.1,1h30.2h30.3l1-1.1c1-1.1,1-1.3,1-18.3v-17.2l5.2-2.7c20.3-10.4,34.7-27,41.7-47.9c9.5-28.4,3.2-59.4-16.6-82c-12.2-14-30-24-48.3-27.1C136,10.1,125.1,9.7,119.7,10.3z M143,18.9c30.8,6.6,53.7,29.8,59.9,60.6c1.5,7.7,1.5,20.7,0,28.3c-4.9,24.3-20,43.8-42.1,54.4c-2.7,1.3-5.1,2.4-5.4,2.4c-1.7,0-1.9,1.3-2.1,18.5l-0.2,17h-25h-25l-0.2-17c-0.2-17.2-0.4-18.5-2.1-18.5c-1,0-10.4-4.8-14.2-7.3C59.9,140,47,108.9,53.5,77.5c5-24.2,23.2-45.6,46.6-54.8c5.4-2.1,10.9-3.6,16.9-4.6C123.1,17.1,136.8,17.5,143,18.9z"/><path fill="white" d="M124.4,40.2c-2.1,0.6-5.1,2.2-6.2,3.5c-1.6,1.7-3,4.8-3.3,7.4l-0.3,2.4L111,55l-3.6,1.5l-1.7-1.5c-2.4-2-4.4-2.8-7.9-2.8c-5.1,0-9.7,3-12.2,8.1c-2.1,4.1-1.7,9,1.2,12.8l1.6,2.1l-1.6,3.8l-1.6,3.8l-2,0c-4.2,0-9.5,4.2-10.7,8.5c-0.7,2.6-0.6,7.2,0.3,9.8c1.4,4.2,6.4,8,10.7,8c1.1,0,1.4,0.3,2.3,2.5c0.5,1.4,1.2,3.2,1.6,4c0.6,1.4,0.5,1.6-0.7,3c-0.7,0.8-1.6,2.7-2,4.1c-1.4,4.8-0.1,8.7,4,12.7c2.9,2.9,4.9,3.8,8.5,4c3.1,0.2,7-1,8.5-2.8c0.8-0.9,0.9-0.9,3,0.2c1.2,0.6,3,1.4,4,1.7c1.6,0.5,1.8,0.8,2.1,2.7c0.5,3.2,2.9,6.9,5.6,8.6c2.2,1.3,2.6,1.4,7.4,1.4c4.8,0,5.2-0.1,7.4-1.4c2.7-1.7,5.1-5.3,5.6-8.5c0.3-2,0.4-2,4.2-3.6c3.1-1.3,4-1.5,4.6-1c3.7,2.7,8.1,3.5,12.1,2.3c2.3-0.7,7.1-5,8.4-7.5c2-4,1.5-9.7-1.2-12.9L168,117l1.6-4l1.6-4l2.3-0.2c4.3-0.6,8-3.6,9.6-7.9c0.9-2.5,0.9-7.8,0-10.2c-1.5-4.1-5.5-7.3-9.9-7.9l-2.4-0.3l-1.6-3.7l-1.6-3.8l1.6-2c2.8-3.7,3.3-8.6,1.1-12.7c-2.5-5-7.1-8.1-12.2-8.1c-3.5,0-5.5,0.7-7.9,2.8l-1.7,1.5l-3.6-1.5l-3.6-1.5l-0.3-2.4c-0.9-6.5-5.4-10.7-12.1-11.1C127.3,40,125.2,40,124.4,40.2z M131.3,48.1c1.8,1,2.4,2.6,2.4,6.2c0,4.1,0.7,4.9,8.1,7.8c8.3,3.3,8.2,3.3,11.7,0c1.7-1.7,3-2.5,4.2-2.7c1.6-0.2,1.9-0.1,4.1,2.1c2,2,2.4,2.7,2.4,4.1s-0.4,2.2-2.3,4.2c-1.3,1.4-2.5,3-2.7,3.6c-0.4,1.2,4.5,13.4,6.1,15.2c0.8,0.9,1.5,1.1,3.8,1.1c3.2,0,5.8,0.9,6.5,2.3c0.3,0.6,0.5,2.2,0.5,3.8c0,2.4-0.2,3-1.2,4.1c-0.7,0.7-1.6,1.2-2,1.2c-5,0.1-6.4,0.4-7.2,1.3c-1,1.3-6.1,14.1-6.1,15.3c0,0.5,1.1,2.1,2.4,3.6c3.1,3.5,3.2,5,0.5,8c-3.1,3.3-5.2,3.3-8.8-0.2c-1-1-2.3-1.9-2.9-2.1c-1.2-0.3-15,5.5-16.1,6.9c-0.6,0.7-0.9,1.9-0.9,3.6c0,4.4-1.7,6.3-5.7,6.3c-4,0-5.7-1.9-5.7-6.4c0-3.7-0.9-4.4-9.1-7.9c-7.8-3.2-8.1-3.2-10.8-0.3c-2,2-4.2,2.9-5.8,2.2c-0.7-0.2-2-1.3-3-2.4c-2.6-2.9-2.4-4.5,0.6-7.9c1.5-1.7,2.4-3,2.4-3.8c0-1.7-5.1-14.3-6.2-15.3c-0.6-0.6-2-0.9-4.5-1c-3-0.2-3.8-0.4-4.8-1.4c-1-1-1.2-1.6-1.2-4c0-1.6,0.2-3.2,0.5-3.8c0.7-1.3,3.3-2.3,6.4-2.3c1.5,0,3.1-0.2,3.6-0.5c1-0.5,6.7-13.5,6.7-15.2c0-0.6-1.1-2.2-2.6-3.9c-3.5-3.8-3.6-5.3-0.5-8.5c1.9-2,2.3-2.2,4-2.2c1.7,0,2.3,0.3,4.4,2.5c1.4,1.3,3,2.6,3.6,2.7c1.4,0.5,13.9-4.6,15.3-6.2c0.9-1,1-1.8,1-4.4c0-3.5,0.7-5.1,2.4-6.1C126.2,47.2,129.6,47.3,131.3,48.1z"/><path fill="white" d="M121.1,69.6c-9.1,2.5-16.8,10.2-19.1,19.1c-1,3.7-0.9,10.8,0,14.1c1.9,6.2,6.2,12.1,11.5,15.5c6.5,4.2,15.4,5.3,22.7,2.9c4.7-1.6,7.9-3.7,11.3-7.3c4.7-5,7.1-11,7.1-18.1c0-7.7-2.4-13.5-7.9-19c-3.6-3.6-7.4-5.9-12.1-7.1C131.4,68.7,124.3,68.7,121.1,69.6z M135,77.5c1.4,0.5,3.7,1.8,5,2.9c11.6,9.1,9.3,26.6-4.2,33c-2.9,1.4-3.6,1.5-7.7,1.5c-4.1,0-4.8-0.1-7.7-1.5c-12.7-6-15.6-21.6-5.9-31.4C119.9,76.4,127.7,74.8,135,77.5z"/><path fill="white" d="M101.6,220.6c-2,2-1.4,5,1.2,5.9c2,0.7,47.5,0.7,50.1,0c3-0.8,3.7-3.9,1.6-6l-1.1-1.2H128h-25.3L101.6,220.6z"/><path fill="white" d="M111.8,239.1c-2.4,1.2-2.4,5.1,0,6.4c0.9,0.5,4.9,0.6,16.8,0.5l15.7-0.1l0.9-1.1c0.5-0.6,0.9-1.7,0.9-2.4s-0.4-1.8-0.9-2.4l-0.9-1.1l-15.7-0.1C116.7,238.4,112.7,238.6,111.8,239.1z"/></g></g></g>
</svg>